<svg id="Image" enable-background="new 0 0 64 64" height="64" viewBox="0 0 64 64" width="64" xmlns="http://www.w3.org/2000/svg"><g><path d="m56 35.33v14.67l-24 8v-26l4 10z" fill="#c2e7ff"/><path d="m32 16 24 8-24 8-24-8z" fill="#c2e7ff"/><path d="m32 32v26l-24-8v-14.67l20 6.67z" fill="#85ceff"/><g style="fill:none;stroke:#0c67bd;stroke-width:2;stroke-linecap:round;stroke-linejoin:round;stroke-miterlimit:10"><path d="m56 24-24 8-24-8"/><path d="m56 35.33v14.67l-24 8-24-8v-14.67"/><path d="m56 24-24-8-24 8"/><path d="m32 32 4 10 20-6.67 4-1.33-4-10 4-10-24-8-4 10-4-10-24 8 4 10-4 10 4 1.33 20 6.67z"/><path d="m32 58v-26"/><path d="m32 16v10"/></g></g></svg>